<svg width="10" height="9" viewBox="0 0 10 9" fill="none" xmlns="http://www.w3.org/2000/svg">
<path fill-rule="evenodd" clip-rule="evenodd" d="M0.000244141 0.508671C0.000244141 0.228009 0.203749 0.000488281 0.454784 0.000488281H9.54559C9.79662 0.000488281 10.0001 0.228009 10.0001 0.508671V8.13141C10.0001 8.41207 9.79662 8.63959 9.54559 8.63959H0.454784C0.203749 8.63959 0.000244141 8.41207 0.000244141 8.13141V0.508671ZM0.909324 1.01685V7.62322H9.09105V1.01685H0.909324Z" fill="#BCBCBC"/>
<path fill-rule="evenodd" clip-rule="evenodd" d="M0.0909348 0.203303C0.241556 -0.0212262 0.526463 -0.0667304 0.727291 0.101666L4.99997 3.68435L9.27265 0.101666C9.47347 -0.0667304 9.75838 -0.0212262 9.909 0.203303C10.0596 0.427832 10.0189 0.746361 9.8181 0.914758L5.27269 4.72613C5.11108 4.86164 4.88886 4.86164 4.72724 4.72613L0.181843 0.914758C-0.0189857 0.746361 -0.0596866 0.427832 0.0909348 0.203303Z" fill="#BCBCBC"/>
<path fill-rule="evenodd" clip-rule="evenodd" d="M0.000244141 0.508671C0.000244141 0.228009 0.203749 0.000488281 0.454784 0.000488281H5.00019C5.25122 0.000488281 5.45473 0.228009 5.45473 0.508671C5.45473 0.789332 5.25122 1.01685 5.00019 1.01685H0.909324V4.32004C0.909324 4.6007 0.70582 4.82822 0.454784 4.82822C0.203749 4.82822 0.000244141 4.6007 0.000244141 4.32004V0.508671Z" fill="#BCBCBC"/>
<path fill-rule="evenodd" clip-rule="evenodd" d="M4.54541 0.508182C4.54541 0.227521 4.74891 0 4.99995 0H9.54535C9.79639 0 9.99989 0.227521 9.99989 0.508182V4.31955C9.99989 4.60021 9.79639 4.82773 9.54535 4.82773C9.29432 4.82773 9.09081 4.60021 9.09081 4.31955V1.01636H4.99995C4.74891 1.01636 4.54541 0.788844 4.54541 0.508182Z" fill="#BCBCBC"/>
</svg>
