<svg width="48" height="48" viewBox="0 0 48 48" fill="none" xmlns="http://www.w3.org/2000/svg">
<path d="M41.9999 41.9999L33.3139 33.3139M33.3139 33.3139C34.7997 31.8281 35.9783 30.0643 36.7824 28.123C37.5865 26.1818 38.0003 24.1011 38.0003 21.9999C38.0003 19.8987 37.5865 17.8181 36.7824 15.8768C35.9783 13.9356 34.7997 12.1717 33.3139 10.6859C31.8281 9.20015 30.0643 8.02157 28.123 7.21747C26.1818 6.41337 24.1011 5.99951 21.9999 5.99951C19.8987 5.99951 17.8181 6.41337 15.8768 7.21747C13.9356 8.02157 12.1717 9.20015 10.6859 10.6859C7.68526 13.6866 5.99951 17.7564 5.99951 21.9999C5.99951 26.2435 7.68526 30.3133 10.6859 33.3139C13.6866 36.3146 17.7564 38.0003 21.9999 38.0003C26.2435 38.0003 30.3133 36.3146 33.3139 33.3139Z" stroke="white" stroke-width="3" stroke-linecap="round" stroke-linejoin="round"/>
</svg>
