<svg width="18" height="23" viewBox="0 0 18 23" fill="none" xmlns="http://www.w3.org/2000/svg">
<g opacity="0.5">
<path d="M15.3 5.33605C15.3 6.27147 14.6956 7.02977 13.95 7.02977C13.2044 7.02977 12.6 6.27147 12.6 5.33605C12.6 4.40063 13.2044 3.64233 13.95 3.64233C14.6956 3.64233 15.3 4.40063 15.3 5.33605Z" fill="white"/>
<path fill-rule="evenodd" clip-rule="evenodd" d="M9 17.1921C11.4853 17.1921 13.5 14.6644 13.5 11.5464C13.5 8.42831 11.4853 5.90062 9 5.90062C6.51472 5.90062 4.5 8.42831 4.5 11.5464C4.5 14.6644 6.51472 17.1921 9 17.1921ZM9 14.9338C10.4912 14.9338 11.7 13.4172 11.7 11.5464C11.7 9.67553 10.4912 8.15892 9 8.15892C7.50883 8.15892 6.3 9.67553 6.3 11.5464C6.3 13.4172 7.50883 14.9338 9 14.9338Z" fill="white"/>
<path fill-rule="evenodd" clip-rule="evenodd" d="M0 11.0947C0 7.30041 0 5.40326 0.588565 3.95404C1.10628 2.67926 1.93238 1.64283 2.94845 0.993301C4.10357 0.254883 5.61572 0.254883 8.64 0.254883H9.36C12.3843 0.254883 13.8964 0.254883 15.0515 0.993301C16.0676 1.64283 16.8937 2.67926 17.4114 3.95404C18 5.40326 18 7.30041 18 11.0947V11.998C18 15.7923 18 17.6895 17.4114 19.1387C16.8937 20.4135 16.0676 21.4499 15.0515 22.0994C13.8964 22.8378 12.3843 22.8378 9.36 22.8378H8.64C5.61572 22.8378 4.10357 22.8378 2.94845 22.0994C1.93238 21.4499 1.10628 20.4135 0.588565 19.1387C0 17.6895 0 15.7923 0 11.998V11.0947ZM8.64 2.51318H9.36C10.9018 2.51318 11.95 2.51494 12.7601 2.59798C13.5493 2.67887 13.9528 2.82549 14.2344 3.00546C14.9117 3.43848 15.4625 4.12943 15.8076 4.97928C15.9511 5.33248 16.0679 5.8388 16.1324 6.82887C16.1986 7.8453 16.2 9.16029 16.2 11.0947V11.998C16.2 13.9324 16.1986 15.2474 16.1324 16.2639C16.0679 17.2539 15.9511 17.7602 15.8076 18.1134C15.4625 18.9633 14.9117 19.6542 14.2344 20.0873C13.9528 20.2672 13.5493 20.4138 12.7601 20.4947C11.95 20.5778 10.9018 20.5795 9.36 20.5795H8.64C7.09816 20.5795 6.05003 20.5778 5.23987 20.4947C4.45072 20.4138 4.04715 20.2672 3.76563 20.0873C3.08825 19.6542 2.53752 18.9633 2.19238 18.1134C2.04894 17.7602 1.93207 17.2539 1.86759 16.2639C1.8014 15.2474 1.8 13.9324 1.8 11.998V11.0947C1.8 9.16029 1.8014 7.8453 1.86759 6.82887C1.93207 5.8388 2.04894 5.33248 2.19238 4.97928C2.53752 4.12943 3.08825 3.43848 3.76563 3.00546C4.04715 2.82549 4.45072 2.67887 5.23987 2.59798C6.05003 2.51494 7.09816 2.51318 8.64 2.51318Z" fill="white"/>
</g>
</svg>
