<svg width="8" height="8" viewBox="0 0 8 8" fill="none" xmlns="http://www.w3.org/2000/svg">
<path d="M2.17604 0C2.35381 0 2.51759 0.0963946 2.60385 0.251825L3.20238 1.32998C3.28077 1.47114 3.28444 1.64189 3.21224 1.78631L2.63561 2.93952C2.63561 2.93952 2.80271 3.79861 3.50206 4.49796C4.20139 5.19729 5.05759 5.3615 5.05759 5.3615L6.21065 4.78499C6.35517 4.71272 6.52602 4.71647 6.66723 4.79498L7.74847 5.3961C7.90373 5.48241 8 5.64611 8 5.82376V7.06502C8 7.69714 7.41285 8.15367 6.81393 7.95158C5.58379 7.53652 3.67435 6.74623 2.46405 5.53594C1.25379 4.32568 0.463486 2.4162 0.0484164 1.1861C-0.153675 0.587151 0.302876 0 0.934981 0H2.17604Z" fill="#BCBCBC"/>
</svg>
