<svg width="32" height="32" viewBox="0 0 32 32" fill="none" xmlns="http://www.w3.org/2000/svg">
<path d="M15.2761 10.76L4.65607 21.906C4.47878 22.092 4.37988 22.3391 4.37988 22.596C4.37988 22.853 4.47878 23.1001 4.65607 23.286L4.66807 23.298C4.75402 23.3885 4.85747 23.4605 4.97214 23.5098C5.0868 23.559 5.21029 23.5844 5.33507 23.5844C5.45986 23.5844 5.58334 23.559 5.69801 23.5098C5.81267 23.4605 5.91613 23.3885 6.00207 23.298L16.0021 12.802L25.9981 23.298C26.084 23.3885 26.1875 23.4605 26.3021 23.5098C26.4168 23.559 26.5403 23.5844 26.6651 23.5844C26.7899 23.5844 26.9133 23.559 27.028 23.5098C27.1427 23.4605 27.2461 23.3885 27.3321 23.298L27.3441 23.286C27.5214 23.1001 27.6203 22.853 27.6203 22.596C27.6203 22.3391 27.5214 22.092 27.3441 21.906L16.7241 10.76C16.6307 10.662 16.5184 10.584 16.3939 10.5306C16.2695 10.4773 16.1355 10.4498 16.0001 10.4498C15.8647 10.4498 15.7307 10.4773 15.6062 10.5306C15.4818 10.584 15.3695 10.662 15.2761 10.76Z" fill="white"/>
</svg>
