<svg width="48" height="48" viewBox="0 0 48 48" fill="none" xmlns="http://www.w3.org/2000/svg">
<path d="M42 41.9999L33.314 33.3139M33.314 33.3139C34.7998 31.8281 35.9784 30.0643 36.7825 28.123C37.5866 26.1818 38.0005 24.1011 38.0005 21.9999C38.0005 19.8987 37.5866 17.8181 36.7825 15.8768C35.9784 13.9356 34.7998 12.1717 33.314 10.6859C31.8283 9.20015 30.0644 8.02157 28.1231 7.21747C26.1819 6.41337 24.1013 5.99951 22 5.99951C19.8988 5.99951 17.8182 6.41337 15.877 7.21747C13.9357 8.02157 12.1718 9.20015 10.686 10.6859C7.68539 13.6866 5.99963 17.7564 5.99963 21.9999C5.99963 26.2435 7.68539 30.3133 10.686 33.3139C13.6867 36.3146 17.7565 38.0003 22 38.0003C26.2436 38.0003 30.3134 36.3146 33.314 33.3139Z" stroke="#646789" stroke-width="3" stroke-linecap="round" stroke-linejoin="round"/>
</svg>
