<svg width="16" height="21" viewBox="0 0 16 21" fill="none" xmlns="http://www.w3.org/2000/svg">
<g opacity="0.5">
<path d="M3.85979 2.93506C3.85979 4.27505 2.99575 5.36133 1.9299 5.36133C0.864044 5.36133 0 4.27505 0 2.93506C0 1.59507 0.864044 0.508789 1.9299 0.508789C2.99575 0.508789 3.85979 1.59507 3.85979 2.93506Z" fill="white"/>
<path d="M0.263918 7.14474H3.56289V20.5825H0.263918V7.14474Z" fill="white"/>
<path d="M8.87423 7.14474H5.57526V20.5825H8.87423C8.87423 20.5825 8.87423 16.3521 8.87423 13.7071C8.87423 12.1195 9.2775 10.5249 10.8866 10.5249C12.7051 10.5249 12.6941 12.6025 12.6857 14.2121C12.6746 16.3161 12.701 18.4631 12.701 20.5825H16V13.4904C15.9721 8.96181 15.0942 6.87515 12.2062 6.87515C10.4911 6.87515 9.42796 7.92182 8.87423 8.86877V7.14474Z" fill="white"/>
</g>
</svg>
