<svg width="14" height="11" viewBox="0 0 14 11" fill="none" xmlns="http://www.w3.org/2000/svg">
<path opacity="0.5" d="M4.39437 11C2.77687 11 1.26909 10.55 0 9.77356C1.0775 9.84025 2.97903 9.68053 4.16179 8.60142C2.38254 8.52333 1.58013 7.21805 1.47547 6.66024C1.62665 6.71602 2.34765 6.78296 2.75467 6.62677C0.707949 6.1359 0.393964 4.41785 0.463738 3.89351C0.847498 4.1501 1.49873 4.23935 1.75457 4.21704C-0.152604 2.91176 0.533513 0.948276 0.870757 0.524341C2.23941 2.33806 4.2906 3.35671 6.82819 3.41337C6.78034 3.21265 6.75508 3.00368 6.75508 2.78905C6.75508 1.2487 8.05671 0 9.66235 0C10.5013 0 11.2572 0.340882 11.7878 0.88614C12.3485 0.760485 13.1922 0.466337 13.6046 0.211968C13.3967 0.925964 12.7495 1.52158 12.358 1.74234C12.3548 1.7348 12.3612 1.74985 12.358 1.74234C12.7019 1.69258 13.6324 1.52152 14 1.28296C13.8182 1.68408 13.132 2.351 12.5689 2.72438C12.6736 7.14429 9.13824 11 4.39437 11Z" fill="white"/>
</svg>
