<svg width="17" height="13" viewBox="0 0 17 13" fill="none" xmlns="http://www.w3.org/2000/svg">
<path opacity="0.5" d="M5.33602 13C3.37192 13 1.54103 12.4682 0 11.5506C1.30839 11.6294 3.6174 11.4406 5.0536 10.1653C2.89308 10.073 1.91873 8.53043 1.79164 7.8712C1.97521 7.93712 2.85072 8.01623 3.34496 7.83164C0.859653 7.25152 0.478385 5.2211 0.563111 4.60142C1.02911 4.90467 1.81988 5.01014 2.13055 4.98377C-0.185304 3.44118 0.647837 1.12069 1.05735 0.619675C2.71929 2.76316 5.21002 3.96702 8.29137 4.03398C8.23328 3.79677 8.20259 3.5498 8.20259 3.29615C8.20259 1.47574 9.78314 0 11.7329 0C12.7515 0 13.6695 0.402861 14.3138 1.04726C14.9946 0.898755 16.019 0.551125 16.5199 0.250507C16.2674 1.09432 15.4815 1.79823 15.0061 2.05913C15.0022 2.05022 15.01 2.06801 15.0061 2.05913C15.4237 2.00032 16.5536 1.79816 17 1.51623C16.7793 1.99027 15.946 2.77846 15.2622 3.21972C15.3894 8.44325 11.0964 13 5.33602 13Z" fill="white"/>
</svg>
